<svg id="_5.0" data-name="5.0" xmlns="http://www.w3.org/2000/svg" width="158.859" height="24.148" viewBox="0 0 158.859 24.148">
  <path id="パス_184" data-name="パス 184" d="M381.968,613.047a2.556,2.556,0,0,1-1.507-.5l-3.632-2.639a1.76,1.76,0,0,0-2.076,0l-3.632,2.639a2.564,2.564,0,0,1-3.946-2.866l1.387-4.269a1.762,1.762,0,0,0-.641-1.975l-3.632-2.639a2.564,2.564,0,0,1,1.507-4.638h4.49a1.762,1.762,0,0,0,1.68-1.22l1.387-4.27a2.564,2.564,0,0,1,4.877,0l1.387,4.27a1.762,1.762,0,0,0,1.68,1.22h4.489a2.564,2.564,0,0,1,1.507,4.638l-3.632,2.639a1.762,1.762,0,0,0-.642,1.975l1.387,4.269a2.525,2.525,0,0,1-.931,2.866,2.556,2.556,0,0,1-1.507.5Z" transform="translate(-363.232 -588.899)" fill="#ffbd64"/>
  <path id="パス_185" data-name="パス 185" d="M438.477,613.047a2.556,2.556,0,0,1-1.507-.5l-3.632-2.639a1.76,1.76,0,0,0-2.076,0l-3.632,2.639a2.564,2.564,0,0,1-3.946-2.866l1.387-4.269a1.762,1.762,0,0,0-.642-1.975L420.8,600.8a2.564,2.564,0,0,1,1.507-4.638h4.489a1.762,1.762,0,0,0,1.68-1.22l1.387-4.27a2.564,2.564,0,0,1,4.877,0l1.387,4.27a1.762,1.762,0,0,0,1.68,1.22h4.489A2.564,2.564,0,0,1,443.8,600.8l-3.632,2.639a1.762,1.762,0,0,0-.642,1.975l1.387,4.269a2.526,2.526,0,0,1-.931,2.866,2.557,2.557,0,0,1-1.507.5Z" transform="translate(-386.269 -588.899)" fill="#ffbd64"/>
  <path id="パス_186" data-name="パス 186" d="M494.985,613.047a2.555,2.555,0,0,1-1.507-.5l-3.632-2.639a1.764,1.764,0,0,0-2.076,0l-3.632,2.639a2.564,2.564,0,0,1-3.945-2.866l1.387-4.269a1.762,1.762,0,0,0-.642-1.975l-3.632-2.639a2.564,2.564,0,0,1,1.507-4.638H483.3a1.761,1.761,0,0,0,1.68-1.22l1.387-4.27a2.564,2.564,0,0,1,4.877,0l1.387,4.27a1.762,1.762,0,0,0,1.68,1.22H498.8a2.564,2.564,0,0,1,1.507,4.638l-3.632,2.639a1.763,1.763,0,0,0-.642,1.975l1.387,4.269a2.526,2.526,0,0,1-.931,2.866A2.557,2.557,0,0,1,494.985,613.047Z" transform="translate(-409.305 -588.899)" fill="#ffbd64"/>
  <path id="パス_187" data-name="パス 187" d="M551.494,613.047a2.556,2.556,0,0,1-1.507-.5l-3.632-2.639a1.76,1.76,0,0,0-2.076,0l-3.632,2.639a2.564,2.564,0,0,1-3.946-2.866l1.387-4.269a1.761,1.761,0,0,0-.642-1.974l-3.632-2.639a2.564,2.564,0,0,1,1.507-4.638h4.489a1.762,1.762,0,0,0,1.68-1.22l1.387-4.27a2.564,2.564,0,0,1,4.877,0l1.387,4.27a1.761,1.761,0,0,0,1.68,1.22h4.489a2.564,2.564,0,0,1,1.507,4.638l-3.632,2.639a1.762,1.762,0,0,0-.641,1.975l1.387,4.269a2.525,2.525,0,0,1-.932,2.866,2.556,2.556,0,0,1-1.507.5Z" transform="translate(-432.341 -588.899)" fill="#ffbd64"/>
  <path id="パス_486" data-name="パス 486" d="M551.494,613.047a2.556,2.556,0,0,1-1.507-.5l-3.632-2.639a1.76,1.76,0,0,0-2.076,0l-3.632,2.639a2.564,2.564,0,0,1-3.946-2.866l1.387-4.269a1.761,1.761,0,0,0-.642-1.974l-3.632-2.639a2.564,2.564,0,0,1,1.507-4.638h4.489a1.762,1.762,0,0,0,1.68-1.22l1.387-4.27a2.564,2.564,0,0,1,4.877,0l1.387,4.27a1.761,1.761,0,0,0,1.68,1.22h4.489a2.564,2.564,0,0,1,1.507,4.638l-3.632,2.639a1.762,1.762,0,0,0-.641,1.975l1.387,4.269a2.525,2.525,0,0,1-.932,2.866,2.556,2.556,0,0,1-1.507.5Z" transform="translate(-399.016 -588.899)" fill="#ffbd64"/>
</svg>
