<svg id="_1.0_1.4" data-name="1.0~1.4" xmlns="http://www.w3.org/2000/svg" width="161.001" height="24.654" viewBox="0 0 161.001 24.654">
  <path id="パス_184" data-name="パス 184" d="M381.968,613.047a2.556,2.556,0,0,1-1.507-.5l-3.632-2.639a1.76,1.76,0,0,0-2.076,0l-3.632,2.639a2.564,2.564,0,0,1-3.946-2.866l1.387-4.269a1.762,1.762,0,0,0-.641-1.975l-3.632-2.639a2.564,2.564,0,0,1,1.507-4.638h4.49a1.762,1.762,0,0,0,1.68-1.22l1.387-4.27a2.564,2.564,0,0,1,4.877,0l1.387,4.27a1.762,1.762,0,0,0,1.68,1.22h4.489a2.564,2.564,0,0,1,1.507,4.638l-3.632,2.639a1.762,1.762,0,0,0-.642,1.975l1.387,4.269a2.525,2.525,0,0,1-.931,2.866,2.556,2.556,0,0,1-1.507.5Z" transform="translate(-363.232 -588.647)" fill="#ffbd64"/>
  <g id="グループ_66" data-name="グループ 66" transform="translate(33.405 0)">
    <path id="パス_188" data-name="パス 188" d="M595.513,613.165a2.808,2.808,0,0,1-1.655-.548,2.775,2.775,0,0,1-1.023-3.149l1.387-4.27a1.51,1.51,0,0,0-.55-1.692l-3.632-2.639a2.816,2.816,0,0,1,1.655-5.095h4.49a1.509,1.509,0,0,0,1.439-1.046l1.388-4.27a2.816,2.816,0,0,1,5.357,0l1.387,4.27a1.51,1.51,0,0,0,1.44,1.046h4.49a2.816,2.816,0,0,1,1.656,5.095l-3.632,2.639a1.51,1.51,0,0,0-.55,1.692l1.387,4.269a2.816,2.816,0,0,1-4.334,3.149l-3.632-2.639a1.51,1.51,0,0,0-1.78,0l-3.632,2.639A2.808,2.808,0,0,1,595.513,613.165Zm6.177-4.78a2.811,2.811,0,0,1,1.655.539l3.632,2.639a1.514,1.514,0,0,0,2.329-1.692l-1.387-4.269a2.809,2.809,0,0,1,1.023-3.149l3.632-2.639a1.514,1.514,0,0,0-.89-2.738H607.2a2.809,2.809,0,0,1-2.678-1.946l-1.388-4.27a1.514,1.514,0,0,0-2.879,0l-1.387,4.27a2.809,2.809,0,0,1-2.678,1.946H591.7a1.513,1.513,0,0,0-.89,2.738l3.632,2.639a2.81,2.81,0,0,1,1.023,3.149l-1.388,4.269a1.514,1.514,0,0,0,2.329,1.692l3.632-2.639A2.813,2.813,0,0,1,601.69,608.385Z" transform="translate(-588.879 -588.512)" fill="#ffbd64"/>
  </g>
  <g id="グループ_67" data-name="グループ 67" transform="translate(67.397 0)">
    <path id="パス_188-2" data-name="パス 188" d="M595.513,613.165a2.808,2.808,0,0,1-1.655-.548,2.775,2.775,0,0,1-1.023-3.149l1.387-4.27a1.51,1.51,0,0,0-.55-1.692l-3.632-2.639a2.816,2.816,0,0,1,1.655-5.095h4.49a1.509,1.509,0,0,0,1.439-1.046l1.388-4.27a2.816,2.816,0,0,1,5.357,0l1.387,4.27a1.51,1.51,0,0,0,1.44,1.046h4.49a2.816,2.816,0,0,1,1.656,5.095l-3.632,2.639a1.51,1.51,0,0,0-.55,1.692l1.387,4.269a2.816,2.816,0,0,1-4.334,3.149l-3.632-2.639a1.51,1.51,0,0,0-1.78,0l-3.632,2.639A2.808,2.808,0,0,1,595.513,613.165Zm6.177-4.78a2.811,2.811,0,0,1,1.655.539l3.632,2.639a1.514,1.514,0,0,0,2.329-1.692l-1.387-4.269a2.809,2.809,0,0,1,1.023-3.149l3.632-2.639a1.514,1.514,0,0,0-.89-2.738H607.2a2.809,2.809,0,0,1-2.678-1.946l-1.388-4.27a1.514,1.514,0,0,0-2.879,0l-1.387,4.27a2.809,2.809,0,0,1-2.678,1.946H591.7a1.513,1.513,0,0,0-.89,2.738l3.632,2.639a2.81,2.81,0,0,1,1.023,3.149l-1.388,4.269a1.514,1.514,0,0,0,2.329,1.692l3.632-2.639A2.813,2.813,0,0,1,601.69,608.385Z" transform="translate(-588.879 -588.512)" fill="#ffbd64"/>
  </g>
  <g id="グループ_68" data-name="グループ 68" transform="translate(101.388 0)">
    <path id="パス_188-3" data-name="パス 188" d="M595.513,613.165a2.808,2.808,0,0,1-1.655-.548,2.775,2.775,0,0,1-1.023-3.149l1.387-4.27a1.51,1.51,0,0,0-.55-1.692l-3.632-2.639a2.816,2.816,0,0,1,1.655-5.095h4.49a1.509,1.509,0,0,0,1.439-1.046l1.388-4.27a2.816,2.816,0,0,1,5.357,0l1.387,4.27a1.51,1.51,0,0,0,1.44,1.046h4.49a2.816,2.816,0,0,1,1.656,5.095l-3.632,2.639a1.51,1.51,0,0,0-.55,1.692l1.387,4.269a2.816,2.816,0,0,1-4.334,3.149l-3.632-2.639a1.51,1.51,0,0,0-1.78,0l-3.632,2.639A2.808,2.808,0,0,1,595.513,613.165Zm6.177-4.78a2.811,2.811,0,0,1,1.655.539l3.632,2.639a1.514,1.514,0,0,0,2.329-1.692l-1.387-4.269a2.809,2.809,0,0,1,1.023-3.149l3.632-2.639a1.514,1.514,0,0,0-.89-2.738H607.2a2.809,2.809,0,0,1-2.678-1.946l-1.388-4.27a1.514,1.514,0,0,0-2.879,0l-1.387,4.27a2.809,2.809,0,0,1-2.678,1.946H591.7a1.513,1.513,0,0,0-.89,2.738l3.632,2.639a2.81,2.81,0,0,1,1.023,3.149l-1.388,4.269a1.514,1.514,0,0,0,2.329,1.692l3.632-2.639A2.813,2.813,0,0,1,601.69,608.385Z" transform="translate(-588.879 -588.512)" fill="#ffbd64"/>
  </g>
  <g id="グループ_69" data-name="グループ 69" transform="translate(135.379 0)">
    <path id="パス_188-4" data-name="パス 188" d="M595.513,613.165a2.808,2.808,0,0,1-1.655-.548,2.775,2.775,0,0,1-1.023-3.149l1.387-4.27a1.51,1.51,0,0,0-.55-1.692l-3.632-2.639a2.816,2.816,0,0,1,1.655-5.095h4.49a1.509,1.509,0,0,0,1.439-1.046l1.388-4.27a2.816,2.816,0,0,1,5.357,0l1.387,4.27a1.51,1.51,0,0,0,1.44,1.046h4.49a2.816,2.816,0,0,1,1.656,5.095l-3.632,2.639a1.51,1.51,0,0,0-.55,1.692l1.387,4.269a2.816,2.816,0,0,1-4.334,3.149l-3.632-2.639a1.51,1.51,0,0,0-1.78,0l-3.632,2.639A2.808,2.808,0,0,1,595.513,613.165Zm6.177-4.78a2.811,2.811,0,0,1,1.655.539l3.632,2.639a1.514,1.514,0,0,0,2.329-1.692l-1.387-4.269a2.809,2.809,0,0,1,1.023-3.149l3.632-2.639a1.514,1.514,0,0,0-.89-2.738H607.2a2.809,2.809,0,0,1-2.678-1.946l-1.388-4.27a1.514,1.514,0,0,0-2.879,0l-1.387,4.27a2.809,2.809,0,0,1-2.678,1.946H591.7a1.513,1.513,0,0,0-.89,2.738l3.632,2.639a2.81,2.81,0,0,1,1.023,3.149l-1.388,4.269a1.514,1.514,0,0,0,2.329,1.692l3.632-2.639A2.813,2.813,0,0,1,601.69,608.385Z" transform="translate(-588.879 -588.512)" fill="#ffbd64"/>
  </g>
</svg>
